# xmcd
#
# Track frame offsets: 
#        150
#        13427
#        46297
#        59895
#        77931
#        97483
#        121851
#        140151
#
# Disc length: 2097 seconds
#
# Revision: 0
# Processed by: cddbd v1.5.2PL0 Copyright (c) Steve Scherf et al.
# Submitted via: ExactAudioCopy v0.95b3
#
DISCID=7f082f08
DTITLE=The Rolling Stones  - Gimme Shelter - Bonus Tracks  FLAC
DYEAR=1900
DGENRE=
TTITLE0=Under My Thumb .Live
TTITLE1=Midnight Rambler.Live
TTITLE2=Live With Me. Live
TTITLE3=Gimme Shelter. Live
TTITLE4=Little Queenie.Live
TTITLE5=Satisfaction. Live
TTITLE6=Honky Tonk Woman. Live
TTITLE7=Street Fighting Man.Live
EXTD=
EXTT0=
EXTT1=
EXTT2=
EXTT3=
EXTT4=
EXTT5=
EXTT6=
EXTT7=
PLAYORDER=
